<?xml version="1.0" encoding="UTF-8" standalone="no"?>
<svg
   version="1.2"
   viewBox="0 0 850 850"
   width="850"
   height="850"
   id="svg10"
   sodipodi:docname="speech bubble.svg"
   inkscape:version="1.3.2 (091e20e, 2023-11-25, custom)"
   xmlns:inkscape="http://www.inkscape.org/namespaces/inkscape"
   xmlns:sodipodi="http://sodipodi.sourceforge.net/DTD/sodipodi-0.dtd"
   xmlns="http://www.w3.org/2000/svg"
   xmlns:svg="http://www.w3.org/2000/svg">
  <defs
     id="defs10" />
  <sodipodi:namedview
     id="namedview10"
     pagecolor="#ffffff"
     bordercolor="#000000"
     borderopacity="0.25"
     inkscape:showpageshadow="2"
     inkscape:pageopacity="0.0"
     inkscape:pagecheckerboard="0"
     inkscape:deskcolor="#d1d1d1"
     inkscape:zoom="0.24769535"
     inkscape:cx="3203.5321"
     inkscape:cy="-377.47984"
     inkscape:window-width="2560"
     inkscape:window-height="1387"
     inkscape:window-x="1912"
     inkscape:window-y="-8"
     inkscape:window-maximized="1"
     inkscape:current-layer="Capa 1" />
  <title
     id="title1">57088</title>
  <style
     id="style1">
		.s0 { fill: #2e3843 } 
		.s1 { fill: #fefefe } 
	</style>
  <g
     id="_Artboards_" />
  <g
     id="Capa 1"
     transform="translate(-12.132658,-5.7094879)"
     style="fill:#000000">
    <g
       id="&lt;Group&gt;"
       style="fill:#000000" />
    <g
       id="g10"
       style="fill:#000000"
       transform="matrix(3.4896085,0,0,2.9657248,885.65298,-2018.5432)">
      <g
         id="g3"
         style="fill:#000000">
        <path
           id="path1"
           class="s1"
           d="M 234.7,338.7 H 87.8 c -16.3,0 -29.4,13.1 -29.4,29.4 v 83.8 c 0,16.2 13.1,29.4 29.4,29.4 h 14.9 c 5.1,10.3 7.1,24 -10.1,33.5 0,0 44.9,-11.3 53.1,-33.5 h 89 c 16.2,0 29.4,-13.2 29.4,-29.4 v -83.8 c 0,-16.3 -13.2,-29.4 -29.4,-29.4 z"
           style="fill:#ffffff"
           inkscape:export-filename="witcherverse\images\vanta\speech-bubble\path1.png"
           inkscape:export-xdpi="96"
           inkscape:export-ydpi="96" />
        <g
           id="g2"
           style="fill:#000000">
          <path
             id="&lt;Compound Path&gt;"
             class="s1"
             d="m 255,657.7 c 10.6,-5.6 17.9,-16.8 17.9,-29.7 0,-18.7 -15.1,-33.7 -33.7,-33.7 -7.4,0 -14.3,2.4 -19.8,6.4 -2.3,-16.4 -16.3,-29.1 -33.4,-29.1 -11.9,0 -22.4,6.2 -28.4,15.5 -6.1,-8.1 -15.8,-13.3 -26.7,-13.3 -18.7,0 -33.8,15.1 -33.8,33.7 q 0.1,0.8 0.1,1.5 0,0 -0.1,0 c -18.6,0 -33.7,15.1 -33.7,33.7 0,14 8.6,26 20.7,31.1 -3,5.1 -4.8,11.1 -4.8,17.5 0,18.6 15.1,33.7 33.7,33.7 11.5,0 21.6,-5.8 27.7,-14.6 5.1,12.1 20.5,26.7 42.1,26.6 16.8,-0.1 38.7,-7.8 40.5,-28.5 6.1,8 15.8,13.2 26.8,13.2 18.6,0 29.7,-17.7 29.7,-36.4 0,-9.6 -10.7,-25.8 -24.8,-27.6 z"
             style="fill:#000000" />
          <path
             id="path2"
             class="s1"
             d="m 111.8,704.1 c 0,0 15.6,24.6 -9.8,44.2 0,0 57.9,5.1 59.2,-35.8 z"
             style="fill:#000000" />
        </g>
        <path
           id="path3"
           class="s1"
           d="M 227.4,118.9 C 186.6,90.6 128.8,77 85.9,108.9 27.6,152.3 70.6,216 130.1,246.2 c 0,11.7 -3.5,26.2 -17.9,33.9 0,0 45.9,13.7 68.4,-17.9 22.9,3 45,-0.7 61.9,-13.6 51.9,-38.9 27.5,-99.9 -15.1,-129.7 z"
           style="fill:#ffffff"
           inkscape:export-filename="witcherverse\images\vanta\speech-bubble\path3.png"
           inkscape:export-xdpi="96"
           inkscape:export-ydpi="96" />
      </g>
      <g
         id="g6"
         style="fill:#000000">
        <path
           id="path4"
           class="s1"
           d="m 694,84.5 c -54.2,0 -98.1,44 -98.1,98.2 0,18.5 5.1,35.8 14,50.5 -2.4,12.4 -9,31.5 -27.9,39.4 0,0 35.8,3.8 59,-7.3 15.3,9.8 33.5,15.6 53,15.6 54.2,0 98.2,-44 98.2,-98.2 0,-54.2 -44,-98.2 -98.2,-98.2 z"
           style="fill:#ffffff"
           inkscape:export-filename="witcherverse\images\vanta\speech-bubble\path4.png"
           inkscape:export-xdpi="96"
           inkscape:export-ydpi="96" />
        <path
           id="path5"
           class="s1"
           d="M 744.5,384.9 H 597.6 c -16.2,0 -29.4,13.2 -29.4,29.4 v 31.9 c 0,16.2 13.2,29.3 29.4,29.3 h 8.8 c 2.1,7.8 2.5,18.1 -5,27.2 0,0 30.4,-6.7 37.3,-27.2 h 105.8 c 16.2,0 29.4,-13.1 29.4,-29.3 v -31.9 c 0,-16.2 -13.2,-29.4 -29.4,-29.4 z"
           style="fill:#000000" />
        <path
           id="path6"
           class="s1"
           d="m 672.6,547.5 c -66.8,-10.6 -112.6,72.3 -94.2,128.6 5.1,14.8 15.4,27.1 28.6,36.5 0.8,11.5 -1.7,29.8 -22.3,41.2 0,0 46.5,9.1 61.5,-23.4 40.2,10.1 86.4,1.5 107.2,-31.1 0,0 64.9,-128.5 -80.8,-151.8 z"
           style="fill:#ffffff"
           inkscape:export-filename="witcherverse\images\vanta\speech-bubble\path6.png"
           inkscape:export-xdpi="96"
           inkscape:export-ydpi="96" />
      </g>
      <g
         id="g9"
         style="fill:#000000">
        <path
           id="path7"
           class="s1"
           d="M 472.4,554.9 H 371.5 c -19.4,0 -35.1,15.7 -35.1,35 v 100 c 0,19.4 15.7,35.1 35.1,35.1 h 17.8 c 6.1,12.3 8.5,28.8 -12,40.1 0,0 53.6,-13.5 63.4,-40.1 h 31.7 c 19.4,0 35.1,-15.7 35.1,-35.1 v -100 c 0,-19.3 -15.7,-35 -35.1,-35 z"
           style="fill:#ffffff"
           inkscape:export-filename="witcherverse\images\vanta\speech-bubble\path7.png"
           inkscape:export-xdpi="96"
           inkscape:export-ydpi="96" />
        <path
           id="path8"
           class="s1"
           d="M 490.9,97.7 394.8,86.2 c -24,-1.7 -60,1.2 -77.2,23.5 -18.8,25.7 -5.1,94.3 15.5,113.2 6.1,5.5 15.3,8.9 26.1,10.8 0.4,9.7 -1.5,22.1 -12.8,28.3 0,0 36.9,-1.2 50.9,-26 15.3,-0.2 30,-1.1 40.4,-1.1 34.3,0 78.9,-3.5 92.6,-42.9 13.7,-36 -1.7,-84 -39.4,-94.3 z"
           style="fill:#ffffff"
           inkscape:export-filename="witcherverse\images\vanta\speech-bubble\path8.png"
           inkscape:export-xdpi="96"
           inkscape:export-ydpi="96" />
        <path
           id="path9"
           class="s1"
           d="m 527.7,421.3 c 30.8,-50.6 -21.7,-89.7 -66,-89.1 -32.5,0.5 -65.6,-1.4 -97.9,3.2 -38.7,5.5 -57.9,26.2 -56.8,65.8 0.9,31.1 15.9,68.9 44.7,85 31.2,17.5 66.4,15.5 98.2,2 9.5,9.4 27.5,22.4 54.5,24 0,0 -13.6,-23.8 -14,-48.5 15,-12.3 27.9,-26.9 37.3,-42.4 z"
           style="fill:#ffffff"
           inkscape:export-filename="witcherverse\images\vanta\speech-bubble\path9.png"
           inkscape:export-xdpi="96"
           inkscape:export-ydpi="96" />
      </g>
    </g>
  </g>
</svg>
